<?xml version="1.0" encoding="UTF-8" standalone="no"?>
<!DOCTYPE svg PUBLIC "-//W3C//DTD SVG 1.1//EN" "http://www.w3.org/Graphics/SVG/1.1/DTD/svg11.dtd">
<svg width="100%" height="100%" viewBox="0 0 211 211" version="1.1" xmlns="http://www.w3.org/2000/svg" xmlns:xlink="http://www.w3.org/1999/xlink" xml:space="preserve" xmlns:serif="http://www.serif.com/" style="fill-rule:evenodd;clip-rule:evenodd;stroke-linejoin:round;stroke-miterlimit:2;">
    <g transform="matrix(1,0,0,1,-28.555,-758.651)">
        <g id="_5279114_linkedin_network_social-network_linkedin-logo_icon.svg" serif:id="5279114_linkedin_network_social network_linkedin logo_icon.svg" transform="matrix(0.411447,0,0,0.411447,133.885,863.982)">
            <g transform="matrix(1,0,0,1,-256,-256)">
                <path d="M256,0C397.29,0 512,114.71 512,256C512,397.29 397.29,512 256,512C114.71,512 0,397.29 0,256C0,114.71 114.71,0 256,0ZM175.963,399.871L175.963,199.95L109.499,199.95L109.499,399.871L175.963,399.871ZM415.583,399.871L415.583,285.225C415.583,223.816 382.796,195.249 339.074,195.249C303.819,195.249 288.027,214.638 279.185,228.256L279.185,199.95L212.738,199.95C213.619,218.707 212.738,399.871 212.738,399.871L279.184,399.871L279.184,288.221C279.184,282.245 279.614,276.271 281.375,272C286.17,260.065 297.112,247.701 315.47,247.701C339.504,247.701 349.133,266.041 349.133,292.905L349.133,399.871L415.583,399.871ZM143.18,103.55C120.44,103.55 105.583,118.5 105.583,138.095C105.583,157.277 119.988,172.639 142.3,172.639L142.729,172.639C165.904,172.639 180.329,157.277 180.329,138.095C179.899,118.5 165.905,103.55 143.18,103.55Z" style="fill:white;"/>
            </g>
        </g>
    </g>
</svg>
