<?xml version="1.0" encoding="UTF-8" standalone="no"?>
<!DOCTYPE svg PUBLIC "-//W3C//DTD SVG 1.1//EN" "http://www.w3.org/Graphics/SVG/1.1/DTD/svg11.dtd">
<svg width="100%" height="100%" viewBox="0 0 8117 3372" version="1.1" xmlns="http://www.w3.org/2000/svg" xmlns:xlink="http://www.w3.org/1999/xlink" xml:space="preserve" xmlns:serif="http://www.serif.com/" style="fill-rule:evenodd;clip-rule:evenodd;stroke-linecap:round;stroke-linejoin:round;stroke-miterlimit:1.5;">
    <g transform="matrix(1,0,0,1,2824.29,75.6175)">
        <g transform="matrix(1.59222,0,0,1.24697,0,0)">
            <g id="group-1" serif:id="group 1">
                <g transform="matrix(3.21156,0,0,4.10076,-85.1123,-38.6541)">
                    <path d="M11.624,0L664.339,653.233" style="fill:none;stroke:white;stroke-width:1.55px;"/>
                </g>
                <g transform="matrix(3.21156,0,0,4.10076,-168.461,-38.6541)">
                    <path d="M11.624,0L664.339,653.233" style="fill:none;stroke:white;stroke-width:1.55px;"/>
                </g>
                <g transform="matrix(3.21156,0,0,4.10076,85.2872,-38.6541)">
                    <path d="M11.624,0L664.339,653.233" style="fill:none;stroke:white;stroke-width:1.55px;"/>
                </g>
                <g transform="matrix(3.21156,0,0,4.10076,1.93822,-38.6541)">
                    <path d="M11.624,0L664.339,653.233" style="fill:none;stroke:white;stroke-width:1.55px;"/>
                </g>
                <g transform="matrix(3.21156,0,0,4.10076,254.576,-38.6541)">
                    <path d="M11.624,0L664.339,653.233" style="fill:none;stroke:white;stroke-width:1.55px;"/>
                </g>
                <g transform="matrix(3.21156,0,0,4.10076,171.227,-38.6541)">
                    <path d="M11.624,0L664.339,653.233" style="fill:none;stroke:white;stroke-width:1.55px;"/>
                </g>
                <g transform="matrix(3.21156,0,0,4.10076,424.975,-38.6541)">
                    <path d="M11.624,0L664.339,653.233" style="fill:none;stroke:white;stroke-width:1.55px;"/>
                </g>
                <g transform="matrix(3.21156,0,0,4.10076,341.626,-38.6541)">
                    <path d="M11.624,0L664.339,653.233" style="fill:none;stroke:white;stroke-width:1.55px;"/>
                </g>
                <g transform="matrix(3.21156,0,0,4.10076,595.017,-38.6541)">
                    <path d="M11.624,0L664.339,653.233" style="fill:none;stroke:white;stroke-width:1.55px;"/>
                </g>
                <g transform="matrix(3.21156,0,0,4.10076,511.668,-38.6541)">
                    <path d="M11.624,0L664.339,653.233" style="fill:none;stroke:white;stroke-width:1.55px;"/>
                </g>
                <g transform="matrix(3.21156,0,0,4.10076,765.417,-38.6541)">
                    <path d="M11.624,0L664.339,653.233" style="fill:none;stroke:white;stroke-width:1.55px;"/>
                </g>
                <g transform="matrix(3.21156,0,0,4.10076,682.068,-38.6541)">
                    <path d="M11.624,0L664.339,653.233" style="fill:none;stroke:white;stroke-width:1.55px;"/>
                </g>
                <g transform="matrix(3.21156,0,0,4.10076,934.705,-38.6541)">
                    <path d="M11.624,0L664.339,653.233" style="fill:none;stroke:white;stroke-width:1.55px;"/>
                </g>
                <g transform="matrix(3.21156,0,0,4.10076,851.356,-38.6541)">
                    <path d="M11.624,0L664.339,653.233" style="fill:none;stroke:white;stroke-width:1.55px;"/>
                </g>
                <g transform="matrix(3.21156,0,0,4.10076,1105.1,-38.6541)">
                    <path d="M11.624,0L664.339,653.233" style="fill:none;stroke:white;stroke-width:1.55px;"/>
                </g>
                <g transform="matrix(3.21156,0,0,4.10076,1021.76,-38.6541)">
                    <path d="M11.624,0L664.339,653.233" style="fill:none;stroke:white;stroke-width:1.55px;"/>
                </g>
                <g transform="matrix(3.21156,0,0,4.10076,1187.98,-44.6732)">
                    <path d="M11.624,0L664.339,653.233" style="fill:none;stroke:white;stroke-width:1.55px;"/>
                </g>
                <g transform="matrix(3.21156,0,0,4.10076,-1463.34,-57.4637)">
                    <path d="M11.624,0L664.339,653.233" style="fill:none;stroke:white;stroke-width:1.55px;"/>
                </g>
                <g transform="matrix(3.21156,0,0,4.10076,-1546.69,-57.4637)">
                    <path d="M11.624,0L664.339,653.233" style="fill:none;stroke:white;stroke-width:1.55px;"/>
                </g>
                <g transform="matrix(3.21156,0,0,4.10076,-1634.05,-57.4637)">
                    <path d="M11.624,0L664.339,653.233" style="fill:none;stroke:white;stroke-width:1.55px;"/>
                </g>
                <g transform="matrix(3.21156,0,0,4.10076,-1292.94,-57.4637)">
                    <path d="M11.624,0L664.339,653.233" style="fill:none;stroke:white;stroke-width:1.55px;"/>
                </g>
                <g transform="matrix(3.21156,0,0,4.10076,-1376.29,-57.4637)">
                    <path d="M11.624,0L664.339,653.233" style="fill:none;stroke:white;stroke-width:1.55px;"/>
                </g>
                <g transform="matrix(3.21156,0,0,4.10076,-1123.65,-57.4637)">
                    <path d="M11.624,0L664.339,653.233" style="fill:none;stroke:white;stroke-width:1.55px;"/>
                </g>
                <g transform="matrix(3.21156,0,0,4.10076,-1207,-57.4637)">
                    <path d="M11.624,0L664.339,653.233" style="fill:none;stroke:white;stroke-width:1.55px;"/>
                </g>
                <g transform="matrix(3.21156,0,0,4.10076,-953.249,-57.4637)">
                    <path d="M11.624,0L664.339,653.233" style="fill:none;stroke:white;stroke-width:1.55px;"/>
                </g>
                <g transform="matrix(3.21156,0,0,4.10076,-1036.6,-57.4637)">
                    <path d="M11.624,0L664.339,653.233" style="fill:none;stroke:white;stroke-width:1.55px;"/>
                </g>
                <g transform="matrix(3.21156,0,0,4.10076,-783.207,-57.4637)">
                    <path d="M11.624,0L664.339,653.233" style="fill:none;stroke:white;stroke-width:1.55px;"/>
                </g>
                <g transform="matrix(3.21156,0,0,4.10076,-866.556,-57.4637)">
                    <path d="M11.624,0L664.339,653.233" style="fill:none;stroke:white;stroke-width:1.55px;"/>
                </g>
                <g transform="matrix(3.21156,0,0,4.10076,-612.808,-57.4637)">
                    <path d="M11.624,0L664.339,653.233" style="fill:none;stroke:white;stroke-width:1.55px;"/>
                </g>
                <g transform="matrix(3.21156,0,0,4.10076,-696.157,-57.4637)">
                    <path d="M11.624,0L664.339,653.233" style="fill:none;stroke:white;stroke-width:1.55px;"/>
                </g>
                <g transform="matrix(3.21156,0,0,4.10076,-443.519,-57.4637)">
                    <path d="M11.624,0L664.339,653.233" style="fill:none;stroke:white;stroke-width:1.55px;"/>
                </g>
                <g transform="matrix(3.21156,0,0,4.10076,-526.868,-57.4637)">
                    <path d="M11.624,0L664.339,653.233" style="fill:none;stroke:white;stroke-width:1.55px;"/>
                </g>
                <g transform="matrix(3.21156,0,0,4.10076,-273.12,-57.4637)">
                    <path d="M11.624,0L664.339,653.233" style="fill:none;stroke:white;stroke-width:1.55px;"/>
                </g>
                <g transform="matrix(3.21156,0,0,4.10076,-356.469,-57.4637)">
                    <path d="M11.624,0L664.339,653.233" style="fill:none;stroke:white;stroke-width:1.55px;"/>
                </g>
            </g>
        </g>
        <g transform="matrix(1.59222,0,0,1.24697,0,0)">
            <g id="grou2-" serif:id="grou2 " transform="matrix(1,0,0,1,-18.8416,0)">
                <g transform="matrix(3.21156,0,0,4.10076,-203.815,-38.6541)">
                    <path d="M11.624,0L664.339,653.233" style="fill:none;stroke:white;stroke-width:1.55px;"/>
                </g>
                <g transform="matrix(3.21156,0,0,4.10076,-287.164,-38.6541)">
                    <path d="M11.624,0L664.339,653.233" style="fill:none;stroke:white;stroke-width:1.55px;"/>
                </g>
                <g transform="matrix(3.21156,0,0,4.10076,-33.4152,-38.6541)">
                    <path d="M11.624,0L664.339,653.233" style="fill:none;stroke:white;stroke-width:1.55px;"/>
                </g>
                <g transform="matrix(3.21156,0,0,4.10076,-116.764,-38.6541)">
                    <path d="M11.624,0L664.339,653.233" style="fill:none;stroke:white;stroke-width:1.55px;"/>
                </g>
                <g transform="matrix(3.21156,0,0,4.10076,135.873,-38.6541)">
                    <path d="M11.624,0L664.339,653.233" style="fill:none;stroke:white;stroke-width:1.55px;"/>
                </g>
                <g transform="matrix(3.21156,0,0,4.10076,52.5244,-38.6541)">
                    <path d="M11.624,0L664.339,653.233" style="fill:none;stroke:white;stroke-width:1.55px;"/>
                </g>
                <g transform="matrix(3.21156,0,0,4.10076,306.273,-38.6541)">
                    <path d="M11.624,0L664.339,653.233" style="fill:none;stroke:white;stroke-width:1.55px;"/>
                </g>
                <g transform="matrix(3.21156,0,0,4.10076,222.924,-38.6541)">
                    <path d="M11.624,0L664.339,653.233" style="fill:none;stroke:white;stroke-width:1.55px;"/>
                </g>
                <g transform="matrix(3.21156,0,0,4.10076,476.315,-38.6541)">
                    <path d="M11.624,0L664.339,653.233" style="fill:none;stroke:white;stroke-width:1.55px;"/>
                </g>
                <g transform="matrix(3.21156,0,0,4.10076,392.966,-38.6541)">
                    <path d="M11.624,0L664.339,653.233" style="fill:none;stroke:white;stroke-width:1.55px;"/>
                </g>
                <g transform="matrix(3.21156,0,0,4.10076,646.714,-38.6541)">
                    <path d="M11.624,0L664.339,653.233" style="fill:none;stroke:white;stroke-width:1.55px;"/>
                </g>
                <g transform="matrix(3.21156,0,0,4.10076,563.365,-38.6541)">
                    <path d="M11.624,0L664.339,653.233" style="fill:none;stroke:white;stroke-width:1.55px;"/>
                </g>
                <g transform="matrix(3.21156,0,0,4.10076,816.003,-38.6541)">
                    <path d="M11.624,0L664.339,653.233" style="fill:none;stroke:white;stroke-width:1.55px;"/>
                </g>
                <g transform="matrix(3.21156,0,0,4.10076,732.654,-38.6541)">
                    <path d="M11.624,0L664.339,653.233" style="fill:none;stroke:white;stroke-width:1.55px;"/>
                </g>
                <g transform="matrix(3.21156,0,0,4.10076,986.402,-38.6541)">
                    <path d="M11.624,0L664.339,653.233" style="fill:none;stroke:white;stroke-width:1.55px;"/>
                </g>
                <g transform="matrix(3.21156,0,0,4.10076,903.053,-38.6541)">
                    <path d="M11.624,0L664.339,653.233" style="fill:none;stroke:white;stroke-width:1.55px;"/>
                </g>
                <g transform="matrix(3.21156,0,0,4.10076,1069.27,-44.6732)">
                    <path d="M11.624,0L664.339,653.233" style="fill:none;stroke:white;stroke-width:1.55px;"/>
                </g>
                <g transform="matrix(3.21156,0,0,4.10076,-1582.04,-57.4637)">
                    <path d="M11.624,0L664.339,653.233" style="fill:none;stroke:white;stroke-width:1.55px;"/>
                </g>
                <g transform="matrix(3.21156,0,0,4.10076,-1665.39,-57.4637)">
                    <path d="M11.624,0L664.339,653.233" style="fill:none;stroke:white;stroke-width:1.55px;"/>
                </g>
                <g transform="matrix(3.21156,0,0,4.10076,-1752.76,-57.4637)">
                    <path d="M11.624,0L664.339,653.233" style="fill:none;stroke:white;stroke-width:1.55px;"/>
                </g>
                <g transform="matrix(3.21156,0,0,4.10076,-1411.64,-57.4637)">
                    <path d="M11.624,0L664.339,653.233" style="fill:none;stroke:white;stroke-width:1.55px;"/>
                </g>
                <g transform="matrix(3.21156,0,0,4.10076,-1494.99,-57.4637)">
                    <path d="M11.624,0L664.339,653.233" style="fill:none;stroke:white;stroke-width:1.55px;"/>
                </g>
                <g transform="matrix(3.21156,0,0,4.10076,-1242.35,-57.4637)">
                    <path d="M11.624,0L664.339,653.233" style="fill:none;stroke:white;stroke-width:1.55px;"/>
                </g>
                <g transform="matrix(3.21156,0,0,4.10076,-1325.7,-57.4637)">
                    <path d="M11.624,0L664.339,653.233" style="fill:none;stroke:white;stroke-width:1.55px;"/>
                </g>
                <g transform="matrix(3.21156,0,0,4.10076,-1071.95,-57.4637)">
                    <path d="M11.624,0L664.339,653.233" style="fill:none;stroke:white;stroke-width:1.55px;"/>
                </g>
                <g transform="matrix(3.21156,0,0,4.10076,-1155.3,-57.4637)">
                    <path d="M11.624,0L664.339,653.233" style="fill:none;stroke:white;stroke-width:1.55px;"/>
                </g>
                <g transform="matrix(3.21156,0,0,4.10076,-901.91,-57.4637)">
                    <path d="M11.624,0L664.339,653.233" style="fill:none;stroke:white;stroke-width:1.55px;"/>
                </g>
                <g transform="matrix(3.21156,0,0,4.10076,-985.258,-57.4637)">
                    <path d="M11.624,0L664.339,653.233" style="fill:none;stroke:white;stroke-width:1.55px;"/>
                </g>
                <g transform="matrix(3.21156,0,0,4.10076,-731.51,-57.4637)">
                    <path d="M11.624,0L664.339,653.233" style="fill:none;stroke:white;stroke-width:1.55px;"/>
                </g>
                <g transform="matrix(3.21156,0,0,4.10076,-814.859,-57.4637)">
                    <path d="M11.624,0L664.339,653.233" style="fill:none;stroke:white;stroke-width:1.55px;"/>
                </g>
                <g transform="matrix(3.21156,0,0,4.10076,-562.222,-57.4637)">
                    <path d="M11.624,0L664.339,653.233" style="fill:none;stroke:white;stroke-width:1.55px;"/>
                </g>
                <g transform="matrix(3.21156,0,0,4.10076,-645.571,-57.4637)">
                    <path d="M11.624,0L664.339,653.233" style="fill:none;stroke:white;stroke-width:1.55px;"/>
                </g>
                <g transform="matrix(3.21156,0,0,4.10076,-391.822,-57.4637)">
                    <path d="M11.624,0L664.339,653.233" style="fill:none;stroke:white;stroke-width:1.55px;"/>
                </g>
                <g transform="matrix(3.21156,0,0,4.10076,-475.171,-57.4637)">
                    <path d="M11.624,0L664.339,653.233" style="fill:none;stroke:white;stroke-width:1.55px;"/>
                </g>
            </g>
        </g>
        <g transform="matrix(1.59222,0,0,1.24697,0,0)">
            <g id="group3" transform="matrix(1,0,0,1,-35.1711,0)">
                <g transform="matrix(3.21156,0,0,4.10076,-203.815,-38.6541)">
                    <path d="M11.624,0L664.339,653.233" style="fill:none;stroke:white;stroke-width:1.55px;"/>
                </g>
                <g transform="matrix(3.21156,0,0,4.10076,-287.164,-38.6541)">
                    <path d="M11.624,0L664.339,653.233" style="fill:none;stroke:white;stroke-width:1.55px;"/>
                </g>
                <g transform="matrix(3.21156,0,0,4.10076,-33.4152,-38.6541)">
                    <path d="M11.624,0L664.339,653.233" style="fill:none;stroke:white;stroke-width:1.55px;"/>
                </g>
                <g transform="matrix(3.21156,0,0,4.10076,-116.764,-38.6541)">
                    <path d="M11.624,0L664.339,653.233" style="fill:none;stroke:white;stroke-width:1.55px;"/>
                </g>
                <g transform="matrix(3.21156,0,0,4.10076,135.873,-38.6541)">
                    <path d="M11.624,0L664.339,653.233" style="fill:none;stroke:white;stroke-width:1.55px;"/>
                </g>
                <g transform="matrix(3.21156,0,0,4.10076,52.5244,-38.6541)">
                    <path d="M11.624,0L664.339,653.233" style="fill:none;stroke:white;stroke-width:1.55px;"/>
                </g>
                <g transform="matrix(3.21156,0,0,4.10076,306.273,-38.6541)">
                    <path d="M11.624,0L664.339,653.233" style="fill:none;stroke:white;stroke-width:1.55px;"/>
                </g>
                <g transform="matrix(3.21156,0,0,4.10076,222.924,-38.6541)">
                    <path d="M11.624,0L664.339,653.233" style="fill:none;stroke:white;stroke-width:1.55px;"/>
                </g>
                <g transform="matrix(3.21156,0,0,4.10076,476.315,-38.6541)">
                    <path d="M11.624,0L664.339,653.233" style="fill:none;stroke:white;stroke-width:1.55px;"/>
                </g>
                <g transform="matrix(3.21156,0,0,4.10076,392.966,-38.6541)">
                    <path d="M11.624,0L664.339,653.233" style="fill:none;stroke:white;stroke-width:1.55px;"/>
                </g>
                <g transform="matrix(3.21156,0,0,4.10076,646.714,-38.6541)">
                    <path d="M11.624,0L664.339,653.233" style="fill:none;stroke:white;stroke-width:1.55px;"/>
                </g>
                <g transform="matrix(3.21156,0,0,4.10076,563.365,-38.6541)">
                    <path d="M11.624,0L664.339,653.233" style="fill:none;stroke:white;stroke-width:1.55px;"/>
                </g>
                <g transform="matrix(3.21156,0,0,4.10076,816.003,-38.6541)">
                    <path d="M11.624,0L664.339,653.233" style="fill:none;stroke:white;stroke-width:1.55px;"/>
                </g>
                <g transform="matrix(3.21156,0,0,4.10076,732.654,-38.6541)">
                    <path d="M11.624,0L664.339,653.233" style="fill:none;stroke:white;stroke-width:1.55px;"/>
                </g>
                <g transform="matrix(3.21156,0,0,4.10076,986.402,-38.6541)">
                    <path d="M11.624,0L664.339,653.233" style="fill:none;stroke:white;stroke-width:1.55px;"/>
                </g>
                <g transform="matrix(3.21156,0,0,4.10076,903.053,-38.6541)">
                    <path d="M11.624,0L664.339,653.233" style="fill:none;stroke:white;stroke-width:1.55px;"/>
                </g>
                <g transform="matrix(3.21156,0,0,4.10076,1069.27,-44.6732)">
                    <path d="M11.624,0L664.339,653.233" style="fill:none;stroke:white;stroke-width:1.55px;"/>
                </g>
                <g transform="matrix(3.21156,0,0,4.10076,-1582.04,-57.4637)">
                    <path d="M11.624,0L664.339,653.233" style="fill:none;stroke:white;stroke-width:1.55px;"/>
                </g>
                <g transform="matrix(3.21156,0,0,4.10076,-1665.39,-57.4637)">
                    <path d="M11.624,0L664.339,653.233" style="fill:none;stroke:white;stroke-width:1.55px;"/>
                </g>
                <g transform="matrix(3.21156,0,0,4.10076,-1752.76,-57.4637)">
                    <path d="M11.624,0L664.339,653.233" style="fill:none;stroke:white;stroke-width:1.55px;"/>
                </g>
                <g transform="matrix(3.21156,0,0,4.10076,-1411.64,-57.4637)">
                    <path d="M11.624,0L664.339,653.233" style="fill:none;stroke:white;stroke-width:1.55px;"/>
                </g>
                <g transform="matrix(3.21156,0,0,4.10076,-1494.99,-57.4637)">
                    <path d="M11.624,0L664.339,653.233" style="fill:none;stroke:white;stroke-width:1.55px;"/>
                </g>
                <g transform="matrix(3.21156,0,0,4.10076,-1242.35,-57.4637)">
                    <path d="M11.624,0L664.339,653.233" style="fill:none;stroke:white;stroke-width:1.55px;"/>
                </g>
                <g transform="matrix(3.21156,0,0,4.10076,-1325.7,-57.4637)">
                    <path d="M11.624,0L664.339,653.233" style="fill:none;stroke:white;stroke-width:1.55px;"/>
                </g>
                <g transform="matrix(3.21156,0,0,4.10076,-1071.95,-57.4637)">
                    <path d="M11.624,0L664.339,653.233" style="fill:none;stroke:white;stroke-width:1.55px;"/>
                </g>
                <g transform="matrix(3.21156,0,0,4.10076,-1155.3,-57.4637)">
                    <path d="M11.624,0L664.339,653.233" style="fill:none;stroke:white;stroke-width:1.55px;"/>
                </g>
                <g transform="matrix(3.21156,0,0,4.10076,-901.91,-57.4637)">
                    <path d="M11.624,0L664.339,653.233" style="fill:none;stroke:white;stroke-width:1.55px;"/>
                </g>
                <g transform="matrix(3.21156,0,0,4.10076,-985.258,-57.4637)">
                    <path d="M11.624,0L664.339,653.233" style="fill:none;stroke:white;stroke-width:1.55px;"/>
                </g>
                <g transform="matrix(3.21156,0,0,4.10076,-731.51,-57.4637)">
                    <path d="M11.624,0L664.339,653.233" style="fill:none;stroke:white;stroke-width:1.55px;"/>
                </g>
                <g transform="matrix(3.21156,0,0,4.10076,-814.859,-57.4637)">
                    <path d="M11.624,0L664.339,653.233" style="fill:none;stroke:white;stroke-width:1.55px;"/>
                </g>
                <g transform="matrix(3.21156,0,0,4.10076,-562.222,-57.4637)">
                    <path d="M11.624,0L664.339,653.233" style="fill:none;stroke:white;stroke-width:1.55px;"/>
                </g>
                <g transform="matrix(3.21156,0,0,4.10076,-645.571,-57.4637)">
                    <path d="M11.624,0L664.339,653.233" style="fill:none;stroke:white;stroke-width:1.55px;"/>
                </g>
                <g transform="matrix(3.21156,0,0,4.10076,-391.822,-57.4637)">
                    <path d="M11.624,0L664.339,653.233" style="fill:none;stroke:white;stroke-width:1.55px;"/>
                </g>
                <g transform="matrix(3.21156,0,0,4.10076,-475.171,-57.4637)">
                    <path d="M11.624,0L664.339,653.233" style="fill:none;stroke:white;stroke-width:1.55px;"/>
                </g>
            </g>
        </g>
        <g transform="matrix(1.59222,0,0,1.24697,0,0)">
            <g id="group-11" serif:id="group 1" transform="matrix(1,0,0,1,-20.7258,0)">
                <g transform="matrix(3.21156,0,0,4.10076,-85.1123,-38.6541)">
                    <path d="M11.624,0L664.339,653.233" style="fill:none;stroke:white;stroke-width:1.55px;"/>
                </g>
                <g transform="matrix(3.21156,0,0,4.10076,-168.461,-38.6541)">
                    <path d="M11.624,0L664.339,653.233" style="fill:none;stroke:white;stroke-width:1.55px;"/>
                </g>
                <g transform="matrix(3.21156,0,0,4.10076,85.2872,-38.6541)">
                    <path d="M11.624,0L664.339,653.233" style="fill:none;stroke:white;stroke-width:1.55px;"/>
                </g>
                <g transform="matrix(3.21156,0,0,4.10076,1.93822,-38.6541)">
                    <path d="M11.624,0L664.339,653.233" style="fill:none;stroke:white;stroke-width:1.55px;"/>
                </g>
                <g transform="matrix(3.21156,0,0,4.10076,254.576,-38.6541)">
                    <path d="M11.624,0L664.339,653.233" style="fill:none;stroke:white;stroke-width:1.55px;"/>
                </g>
                <g transform="matrix(3.21156,0,0,4.10076,171.227,-38.6541)">
                    <path d="M11.624,0L664.339,653.233" style="fill:none;stroke:white;stroke-width:1.55px;"/>
                </g>
                <g transform="matrix(3.21156,0,0,4.10076,424.975,-38.6541)">
                    <path d="M11.624,0L664.339,653.233" style="fill:none;stroke:white;stroke-width:1.55px;"/>
                </g>
                <g transform="matrix(3.21156,0,0,4.10076,341.626,-38.6541)">
                    <path d="M11.624,0L664.339,653.233" style="fill:none;stroke:white;stroke-width:1.55px;"/>
                </g>
                <g transform="matrix(3.21156,0,0,4.10076,595.017,-38.6541)">
                    <path d="M11.624,0L664.339,653.233" style="fill:none;stroke:white;stroke-width:1.55px;"/>
                </g>
                <g transform="matrix(3.21156,0,0,4.10076,511.668,-38.6541)">
                    <path d="M11.624,0L664.339,653.233" style="fill:none;stroke:white;stroke-width:1.55px;"/>
                </g>
                <g transform="matrix(3.21156,0,0,4.10076,765.417,-38.6541)">
                    <path d="M11.624,0L664.339,653.233" style="fill:none;stroke:white;stroke-width:1.55px;"/>
                </g>
                <g transform="matrix(3.21156,0,0,4.10076,682.068,-38.6541)">
                    <path d="M11.624,0L664.339,653.233" style="fill:none;stroke:white;stroke-width:1.55px;"/>
                </g>
                <g transform="matrix(3.21156,0,0,4.10076,934.705,-38.6541)">
                    <path d="M11.624,0L664.339,653.233" style="fill:none;stroke:white;stroke-width:1.55px;"/>
                </g>
                <g transform="matrix(3.21156,0,0,4.10076,851.356,-38.6541)">
                    <path d="M11.624,0L664.339,653.233" style="fill:none;stroke:white;stroke-width:1.55px;"/>
                </g>
                <g transform="matrix(3.21156,0,0,4.10076,1105.1,-38.6541)">
                    <path d="M11.624,0L664.339,653.233" style="fill:none;stroke:white;stroke-width:1.55px;"/>
                </g>
                <g transform="matrix(3.21156,0,0,4.10076,1021.76,-38.6541)">
                    <path d="M11.624,0L664.339,653.233" style="fill:none;stroke:white;stroke-width:1.55px;"/>
                </g>
                <g transform="matrix(3.21156,0,0,4.10076,1187.98,-44.6732)">
                    <path d="M11.624,0L664.339,653.233" style="fill:none;stroke:white;stroke-width:1.55px;"/>
                </g>
                <g transform="matrix(3.21156,0,0,4.10076,-1463.34,-57.4637)">
                    <path d="M11.624,0L664.339,653.233" style="fill:none;stroke:white;stroke-width:1.55px;"/>
                </g>
                <g transform="matrix(3.21156,0,0,4.10076,-1546.69,-57.4637)">
                    <path d="M11.624,0L664.339,653.233" style="fill:none;stroke:white;stroke-width:1.55px;"/>
                </g>
                <g transform="matrix(3.21156,0,0,4.10076,-1634.05,-57.4637)">
                    <path d="M11.624,0L664.339,653.233" style="fill:none;stroke:white;stroke-width:1.55px;"/>
                </g>
                <g transform="matrix(3.21156,0,0,4.10076,-1292.94,-57.4637)">
                    <path d="M11.624,0L664.339,653.233" style="fill:none;stroke:white;stroke-width:1.55px;"/>
                </g>
                <g transform="matrix(3.21156,0,0,4.10076,-1376.29,-57.4637)">
                    <path d="M11.624,0L664.339,653.233" style="fill:none;stroke:white;stroke-width:1.55px;"/>
                </g>
                <g transform="matrix(3.21156,0,0,4.10076,-1123.65,-57.4637)">
                    <path d="M11.624,0L664.339,653.233" style="fill:none;stroke:white;stroke-width:1.55px;"/>
                </g>
                <g transform="matrix(3.21156,0,0,4.10076,-1207,-57.4637)">
                    <path d="M11.624,0L664.339,653.233" style="fill:none;stroke:white;stroke-width:1.55px;"/>
                </g>
                <g transform="matrix(3.21156,0,0,4.10076,-953.249,-57.4637)">
                    <path d="M11.624,0L664.339,653.233" style="fill:none;stroke:white;stroke-width:1.55px;"/>
                </g>
                <g transform="matrix(3.21156,0,0,4.10076,-1036.6,-57.4637)">
                    <path d="M11.624,0L664.339,653.233" style="fill:none;stroke:white;stroke-width:1.55px;"/>
                </g>
                <g transform="matrix(3.21156,0,0,4.10076,-783.207,-57.4637)">
                    <path d="M11.624,0L664.339,653.233" style="fill:none;stroke:white;stroke-width:1.55px;"/>
                </g>
                <g transform="matrix(3.21156,0,0,4.10076,-866.556,-57.4637)">
                    <path d="M11.624,0L664.339,653.233" style="fill:none;stroke:white;stroke-width:1.55px;"/>
                </g>
                <g transform="matrix(3.21156,0,0,4.10076,-612.808,-57.4637)">
                    <path d="M11.624,0L664.339,653.233" style="fill:none;stroke:white;stroke-width:1.55px;"/>
                </g>
                <g transform="matrix(3.21156,0,0,4.10076,-696.157,-57.4637)">
                    <path d="M11.624,0L664.339,653.233" style="fill:none;stroke:white;stroke-width:1.55px;"/>
                </g>
                <g transform="matrix(3.21156,0,0,4.10076,-443.519,-57.4637)">
                    <path d="M11.624,0L664.339,653.233" style="fill:none;stroke:white;stroke-width:1.55px;"/>
                </g>
                <g transform="matrix(3.21156,0,0,4.10076,-526.868,-57.4637)">
                    <path d="M11.624,0L664.339,653.233" style="fill:none;stroke:white;stroke-width:1.55px;"/>
                </g>
                <g transform="matrix(3.21156,0,0,4.10076,-273.12,-57.4637)">
                    <path d="M11.624,0L664.339,653.233" style="fill:none;stroke:white;stroke-width:1.55px;"/>
                </g>
                <g transform="matrix(3.21156,0,0,4.10076,-356.469,-57.4637)">
                    <path d="M11.624,0L664.339,653.233" style="fill:none;stroke:white;stroke-width:1.55px;"/>
                </g>
            </g>
        </g>
        <g transform="matrix(1.59222,0,0,1.24697,0,0)">
            <g id="grou2-1" serif:id="grou2 " transform="matrix(1,0,0,1,-39.5674,0)">
                <g transform="matrix(3.21156,0,0,4.10076,-203.815,-38.6541)">
                    <path d="M11.624,0L664.339,653.233" style="fill:none;stroke:white;stroke-width:1.55px;"/>
                </g>
                <g transform="matrix(3.21156,0,0,4.10076,-287.164,-38.6541)">
                    <path d="M11.624,0L664.339,653.233" style="fill:none;stroke:white;stroke-width:1.55px;"/>
                </g>
                <g transform="matrix(3.21156,0,0,4.10076,-33.4152,-38.6541)">
                    <path d="M11.624,0L664.339,653.233" style="fill:none;stroke:white;stroke-width:1.55px;"/>
                </g>
                <g transform="matrix(3.21156,0,0,4.10076,-116.764,-38.6541)">
                    <path d="M11.624,0L664.339,653.233" style="fill:none;stroke:white;stroke-width:1.55px;"/>
                </g>
                <g transform="matrix(3.21156,0,0,4.10076,135.873,-38.6541)">
                    <path d="M11.624,0L664.339,653.233" style="fill:none;stroke:white;stroke-width:1.55px;"/>
                </g>
                <g transform="matrix(3.21156,0,0,4.10076,52.5244,-38.6541)">
                    <path d="M11.624,0L664.339,653.233" style="fill:none;stroke:white;stroke-width:1.55px;"/>
                </g>
                <g transform="matrix(3.21156,0,0,4.10076,306.273,-38.6541)">
                    <path d="M11.624,0L664.339,653.233" style="fill:none;stroke:white;stroke-width:1.55px;"/>
                </g>
                <g transform="matrix(3.21156,0,0,4.10076,222.924,-38.6541)">
                    <path d="M11.624,0L664.339,653.233" style="fill:none;stroke:white;stroke-width:1.55px;"/>
                </g>
                <g transform="matrix(3.21156,0,0,4.10076,476.315,-38.6541)">
                    <path d="M11.624,0L664.339,653.233" style="fill:none;stroke:white;stroke-width:1.55px;"/>
                </g>
                <g transform="matrix(3.21156,0,0,4.10076,392.966,-38.6541)">
                    <path d="M11.624,0L664.339,653.233" style="fill:none;stroke:white;stroke-width:1.55px;"/>
                </g>
                <g transform="matrix(3.21156,0,0,4.10076,646.714,-38.6541)">
                    <path d="M11.624,0L664.339,653.233" style="fill:none;stroke:white;stroke-width:1.55px;"/>
                </g>
                <g transform="matrix(3.21156,0,0,4.10076,563.365,-38.6541)">
                    <path d="M11.624,0L664.339,653.233" style="fill:none;stroke:white;stroke-width:1.55px;"/>
                </g>
                <g transform="matrix(3.21156,0,0,4.10076,816.003,-38.6541)">
                    <path d="M11.624,0L664.339,653.233" style="fill:none;stroke:white;stroke-width:1.55px;"/>
                </g>
                <g transform="matrix(3.21156,0,0,4.10076,732.654,-38.6541)">
                    <path d="M11.624,0L664.339,653.233" style="fill:none;stroke:white;stroke-width:1.55px;"/>
                </g>
                <g transform="matrix(3.21156,0,0,4.10076,986.402,-38.6541)">
                    <path d="M11.624,0L664.339,653.233" style="fill:none;stroke:white;stroke-width:1.55px;"/>
                </g>
                <g transform="matrix(3.21156,0,0,4.10076,903.053,-38.6541)">
                    <path d="M11.624,0L664.339,653.233" style="fill:none;stroke:white;stroke-width:1.55px;"/>
                </g>
                <g transform="matrix(3.21156,0,0,4.10076,1069.27,-44.6732)">
                    <path d="M11.624,0L664.339,653.233" style="fill:none;stroke:white;stroke-width:1.55px;"/>
                </g>
                <g transform="matrix(3.21156,0,0,4.10076,-1582.04,-57.4637)">
                    <path d="M11.624,0L664.339,653.233" style="fill:none;stroke:white;stroke-width:1.55px;"/>
                </g>
                <g transform="matrix(3.21156,0,0,4.10076,-1665.39,-57.4637)">
                    <path d="M11.624,0L664.339,653.233" style="fill:none;stroke:white;stroke-width:1.55px;"/>
                </g>
                <g transform="matrix(3.21156,0,0,4.10076,-1752.76,-57.4637)">
                    <path d="M11.624,0L664.339,653.233" style="fill:none;stroke:white;stroke-width:1.55px;"/>
                </g>
                <g transform="matrix(3.21156,0,0,4.10076,-1411.64,-57.4637)">
                    <path d="M11.624,0L664.339,653.233" style="fill:none;stroke:white;stroke-width:1.55px;"/>
                </g>
                <g transform="matrix(3.21156,0,0,4.10076,-1494.99,-57.4637)">
                    <path d="M11.624,0L664.339,653.233" style="fill:none;stroke:white;stroke-width:1.55px;"/>
                </g>
                <g transform="matrix(3.21156,0,0,4.10076,-1242.35,-57.4637)">
                    <path d="M11.624,0L664.339,653.233" style="fill:none;stroke:white;stroke-width:1.55px;"/>
                </g>
                <g transform="matrix(3.21156,0,0,4.10076,-1325.7,-57.4637)">
                    <path d="M11.624,0L664.339,653.233" style="fill:none;stroke:white;stroke-width:1.55px;"/>
                </g>
                <g transform="matrix(3.21156,0,0,4.10076,-1071.95,-57.4637)">
                    <path d="M11.624,0L664.339,653.233" style="fill:none;stroke:white;stroke-width:1.55px;"/>
                </g>
                <g transform="matrix(3.21156,0,0,4.10076,-1155.3,-57.4637)">
                    <path d="M11.624,0L664.339,653.233" style="fill:none;stroke:white;stroke-width:1.55px;"/>
                </g>
                <g transform="matrix(3.21156,0,0,4.10076,-901.91,-57.4637)">
                    <path d="M11.624,0L664.339,653.233" style="fill:none;stroke:white;stroke-width:1.55px;"/>
                </g>
                <g transform="matrix(3.21156,0,0,4.10076,-985.258,-57.4637)">
                    <path d="M11.624,0L664.339,653.233" style="fill:none;stroke:white;stroke-width:1.55px;"/>
                </g>
                <g transform="matrix(3.21156,0,0,4.10076,-731.51,-57.4637)">
                    <path d="M11.624,0L664.339,653.233" style="fill:none;stroke:white;stroke-width:1.55px;"/>
                </g>
                <g transform="matrix(3.21156,0,0,4.10076,-814.859,-57.4637)">
                    <path d="M11.624,0L664.339,653.233" style="fill:none;stroke:white;stroke-width:1.55px;"/>
                </g>
                <g transform="matrix(3.21156,0,0,4.10076,-562.222,-57.4637)">
                    <path d="M11.624,0L664.339,653.233" style="fill:none;stroke:white;stroke-width:1.55px;"/>
                </g>
                <g transform="matrix(3.21156,0,0,4.10076,-645.571,-57.4637)">
                    <path d="M11.624,0L664.339,653.233" style="fill:none;stroke:white;stroke-width:1.55px;"/>
                </g>
                <g transform="matrix(3.21156,0,0,4.10076,-391.822,-57.4637)">
                    <path d="M11.624,0L664.339,653.233" style="fill:none;stroke:white;stroke-width:1.55px;"/>
                </g>
                <g transform="matrix(3.21156,0,0,4.10076,-475.171,-57.4637)">
                    <path d="M11.624,0L664.339,653.233" style="fill:none;stroke:white;stroke-width:1.55px;"/>
                </g>
            </g>
        </g>
        <g transform="matrix(1.59222,0,0,1.24697,0,0)">
            <g id="group31" serif:id="group3" transform="matrix(1,0,0,1,-55.8969,0)">
                <g transform="matrix(3.21156,0,0,4.10076,-203.815,-38.6541)">
                    <path d="M11.624,0L664.339,653.233" style="fill:none;stroke:white;stroke-width:1.55px;"/>
                </g>
                <g transform="matrix(3.21156,0,0,4.10076,-287.164,-38.6541)">
                    <path d="M11.624,0L664.339,653.233" style="fill:none;stroke:white;stroke-width:1.55px;"/>
                </g>
                <g transform="matrix(3.21156,0,0,4.10076,-33.4152,-38.6541)">
                    <path d="M11.624,0L664.339,653.233" style="fill:none;stroke:white;stroke-width:1.55px;"/>
                </g>
                <g transform="matrix(3.21156,0,0,4.10076,-116.764,-38.6541)">
                    <path d="M11.624,0L664.339,653.233" style="fill:none;stroke:white;stroke-width:1.55px;"/>
                </g>
                <g transform="matrix(3.21156,0,0,4.10076,135.873,-38.6541)">
                    <path d="M11.624,0L664.339,653.233" style="fill:none;stroke:white;stroke-width:1.55px;"/>
                </g>
                <g transform="matrix(3.21156,0,0,4.10076,52.5244,-38.6541)">
                    <path d="M11.624,0L664.339,653.233" style="fill:none;stroke:white;stroke-width:1.55px;"/>
                </g>
                <g transform="matrix(3.21156,0,0,4.10076,306.273,-38.6541)">
                    <path d="M11.624,0L664.339,653.233" style="fill:none;stroke:white;stroke-width:1.55px;"/>
                </g>
                <g transform="matrix(3.21156,0,0,4.10076,222.924,-38.6541)">
                    <path d="M11.624,0L664.339,653.233" style="fill:none;stroke:white;stroke-width:1.55px;"/>
                </g>
                <g transform="matrix(3.21156,0,0,4.10076,476.315,-38.6541)">
                    <path d="M11.624,0L664.339,653.233" style="fill:none;stroke:white;stroke-width:1.55px;"/>
                </g>
                <g transform="matrix(3.21156,0,0,4.10076,392.966,-38.6541)">
                    <path d="M11.624,0L664.339,653.233" style="fill:none;stroke:white;stroke-width:1.55px;"/>
                </g>
                <g transform="matrix(3.21156,0,0,4.10076,646.714,-38.6541)">
                    <path d="M11.624,0L664.339,653.233" style="fill:none;stroke:white;stroke-width:1.55px;"/>
                </g>
                <g transform="matrix(3.21156,0,0,4.10076,563.365,-38.6541)">
                    <path d="M11.624,0L664.339,653.233" style="fill:none;stroke:white;stroke-width:1.55px;"/>
                </g>
                <g transform="matrix(3.21156,0,0,4.10076,816.003,-38.6541)">
                    <path d="M11.624,0L664.339,653.233" style="fill:none;stroke:white;stroke-width:1.55px;"/>
                </g>
                <g transform="matrix(3.21156,0,0,4.10076,732.654,-38.6541)">
                    <path d="M11.624,0L664.339,653.233" style="fill:none;stroke:white;stroke-width:1.55px;"/>
                </g>
                <g transform="matrix(3.21156,0,0,4.10076,986.402,-38.6541)">
                    <path d="M11.624,0L664.339,653.233" style="fill:none;stroke:white;stroke-width:1.55px;"/>
                </g>
                <g transform="matrix(3.21156,0,0,4.10076,903.053,-38.6541)">
                    <path d="M11.624,0L664.339,653.233" style="fill:none;stroke:white;stroke-width:1.55px;"/>
                </g>
                <g transform="matrix(3.21156,0,0,4.10076,1069.27,-44.6732)">
                    <path d="M11.624,0L664.339,653.233" style="fill:none;stroke:white;stroke-width:1.55px;"/>
                </g>
                <g transform="matrix(3.21156,0,0,4.10076,-1582.04,-57.4637)">
                    <path d="M11.624,0L664.339,653.233" style="fill:none;stroke:white;stroke-width:1.55px;"/>
                </g>
                <g transform="matrix(3.21156,0,0,4.10076,-1665.39,-57.4637)">
                    <path d="M11.624,0L664.339,653.233" style="fill:none;stroke:white;stroke-width:1.55px;"/>
                </g>
                <g transform="matrix(3.21156,0,0,4.10076,-1752.76,-57.4637)">
                    <path d="M11.624,0L664.339,653.233" style="fill:none;stroke:white;stroke-width:1.55px;"/>
                </g>
                <g transform="matrix(3.21156,0,0,4.10076,-1411.64,-57.4637)">
                    <path d="M11.624,0L664.339,653.233" style="fill:none;stroke:white;stroke-width:1.55px;"/>
                </g>
                <g transform="matrix(3.21156,0,0,4.10076,-1494.99,-57.4637)">
                    <path d="M11.624,0L664.339,653.233" style="fill:none;stroke:white;stroke-width:1.55px;"/>
                </g>
                <g transform="matrix(3.21156,0,0,4.10076,-1242.35,-57.4637)">
                    <path d="M11.624,0L664.339,653.233" style="fill:none;stroke:white;stroke-width:1.55px;"/>
                </g>
                <g transform="matrix(3.21156,0,0,4.10076,-1325.7,-57.4637)">
                    <path d="M11.624,0L664.339,653.233" style="fill:none;stroke:white;stroke-width:1.55px;"/>
                </g>
                <g transform="matrix(3.21156,0,0,4.10076,-1071.95,-57.4637)">
                    <path d="M11.624,0L664.339,653.233" style="fill:none;stroke:white;stroke-width:1.55px;"/>
                </g>
                <g transform="matrix(3.21156,0,0,4.10076,-1155.3,-57.4637)">
                    <path d="M11.624,0L664.339,653.233" style="fill:none;stroke:white;stroke-width:1.55px;"/>
                </g>
                <g transform="matrix(3.21156,0,0,4.10076,-901.91,-57.4637)">
                    <path d="M11.624,0L664.339,653.233" style="fill:none;stroke:white;stroke-width:1.55px;"/>
                </g>
                <g transform="matrix(3.21156,0,0,4.10076,-985.258,-57.4637)">
                    <path d="M11.624,0L664.339,653.233" style="fill:none;stroke:white;stroke-width:1.55px;"/>
                </g>
                <g transform="matrix(3.21156,0,0,4.10076,-731.51,-57.4637)">
                    <path d="M11.624,0L664.339,653.233" style="fill:none;stroke:white;stroke-width:1.55px;"/>
                </g>
                <g transform="matrix(3.21156,0,0,4.10076,-814.859,-57.4637)">
                    <path d="M11.624,0L664.339,653.233" style="fill:none;stroke:white;stroke-width:1.55px;"/>
                </g>
                <g transform="matrix(3.21156,0,0,4.10076,-562.222,-57.4637)">
                    <path d="M11.624,0L664.339,653.233" style="fill:none;stroke:white;stroke-width:1.55px;"/>
                </g>
                <g transform="matrix(3.21156,0,0,4.10076,-645.571,-57.4637)">
                    <path d="M11.624,0L664.339,653.233" style="fill:none;stroke:white;stroke-width:1.55px;"/>
                </g>
                <g transform="matrix(3.21156,0,0,4.10076,-391.822,-57.4637)">
                    <path d="M11.624,0L664.339,653.233" style="fill:none;stroke:white;stroke-width:1.55px;"/>
                </g>
                <g transform="matrix(3.21156,0,0,4.10076,-475.171,-57.4637)">
                    <path d="M11.624,0L664.339,653.233" style="fill:none;stroke:white;stroke-width:1.55px;"/>
                </g>
            </g>
        </g>
    </g>
</svg>
