<?xml version="1.0" encoding="UTF-8" standalone="no"?>
<!DOCTYPE svg PUBLIC "-//W3C//DTD SVG 1.1//EN" "http://www.w3.org/Graphics/SVG/1.1/DTD/svg11.dtd">
<svg width="100%" height="100%" viewBox="0 0 1920 1080" version="1.1" xmlns="http://www.w3.org/2000/svg" xmlns:xlink="http://www.w3.org/1999/xlink" xml:space="preserve" xmlns:serif="http://www.serif.com/" style="fill-rule:evenodd;clip-rule:evenodd;stroke-linecap:round;stroke-linejoin:round;stroke-miterlimit:1.5;">
    <g transform="matrix(2.1658,0,0,2.1658,-112.975,-89.3704)">
        <path d="M11.624,0L664.339,653.233" style="fill:none;stroke:rgb(205,205,193);stroke-width:1.22px;"/>
    </g>
    <g transform="matrix(2.1658,0,0,2.1658,-169.184,-89.3704)">
        <path d="M11.624,0L664.339,653.233" style="fill:none;stroke:rgb(205,205,193);stroke-width:1.22px;"/>
    </g>
    <g transform="matrix(2.1658,0,0,2.1658,1.93844,-89.3704)">
        <path d="M11.624,0L664.339,653.233" style="fill:none;stroke:rgb(205,205,193);stroke-width:1.22px;"/>
    </g>
    <g transform="matrix(2.1658,0,0,2.1658,-54.2702,-89.3704)">
        <path d="M11.624,0L664.339,653.233" style="fill:none;stroke:rgb(205,205,193);stroke-width:1.22px;"/>
    </g>
    <g transform="matrix(2.1658,0,0,2.1658,116.103,-89.3704)">
        <path d="M11.624,0L664.339,653.233" style="fill:none;stroke:rgb(205,205,193);stroke-width:1.22px;"/>
    </g>
    <g transform="matrix(2.1658,0,0,2.1658,59.8941,-89.3704)">
        <path d="M11.624,0L664.339,653.233" style="fill:none;stroke:rgb(205,205,193);stroke-width:1.22px;"/>
    </g>
    <g transform="matrix(2.1658,0,0,2.1658,231.016,-89.3704)">
        <path d="M11.624,0L664.339,653.233" style="fill:none;stroke:rgb(205,205,193);stroke-width:1.22px;"/>
    </g>
    <g transform="matrix(2.1658,0,0,2.1658,174.808,-89.3704)">
        <path d="M11.624,0L664.339,653.233" style="fill:none;stroke:rgb(205,205,193);stroke-width:1.22px;"/>
    </g>
    <g transform="matrix(2.1658,0,0,2.1658,345.689,-89.3704)">
        <path d="M11.624,0L664.339,653.233" style="fill:none;stroke:rgb(205,205,193);stroke-width:1.22px;"/>
    </g>
    <g transform="matrix(2.1658,0,0,2.1658,289.48,-89.3704)">
        <path d="M11.624,0L664.339,653.233" style="fill:none;stroke:rgb(205,205,193);stroke-width:1.22px;"/>
    </g>
    <g transform="matrix(2.1658,0,0,2.1658,460.602,-89.3704)">
        <path d="M11.624,0L664.339,653.233" style="fill:none;stroke:rgb(205,205,193);stroke-width:1.22px;"/>
    </g>
    <g transform="matrix(2.1658,0,0,2.1658,404.394,-89.3704)">
        <path d="M11.624,0L664.339,653.233" style="fill:none;stroke:rgb(205,205,193);stroke-width:1.22px;"/>
    </g>
    <g transform="matrix(2.1658,0,0,2.1658,574.767,-89.3704)">
        <path d="M11.624,0L664.339,653.233" style="fill:none;stroke:rgb(205,205,193);stroke-width:1.22px;"/>
    </g>
    <g transform="matrix(2.1658,0,0,2.1658,518.558,-89.3704)">
        <path d="M11.624,0L664.339,653.233" style="fill:none;stroke:rgb(205,205,193);stroke-width:1.22px;"/>
    </g>
    <g transform="matrix(2.1658,0,0,2.1658,689.68,-89.3704)">
        <path d="M11.624,0L664.339,653.233" style="fill:none;stroke:rgb(205,205,193);stroke-width:1.22px;"/>
    </g>
    <g transform="matrix(2.1658,0,0,2.1658,633.472,-89.3704)">
        <path d="M11.624,0L664.339,653.233" style="fill:none;stroke:rgb(205,205,193);stroke-width:1.22px;"/>
    </g>
    <g transform="matrix(2.1658,0,0,2.1658,801.775,-92.5493)">
        <path d="M11.624,0L664.339,653.233" style="fill:none;stroke:rgb(205,205,193);stroke-width:1.22px;"/>
    </g>
    <g transform="matrix(2.1658,0,0,2.1658,745.566,-92.5493)">
        <path d="M11.624,0L664.339,653.233" style="fill:none;stroke:rgb(205,205,193);stroke-width:1.22px;"/>
    </g>
    <g transform="matrix(2.1658,0,0,2.1658,916.689,-92.5493)">
        <path d="M11.624,0L664.339,653.233" style="fill:none;stroke:rgb(205,205,193);stroke-width:1.22px;"/>
    </g>
    <g transform="matrix(2.1658,0,0,2.1658,860.48,-92.5493)">
        <path d="M11.624,0L664.339,653.233" style="fill:none;stroke:rgb(205,205,193);stroke-width:1.22px;"/>
    </g>
    <g transform="matrix(2.1658,0,0,2.1658,1030.85,-92.5493)">
        <path d="M11.624,0L664.339,653.233" style="fill:none;stroke:rgb(205,205,193);stroke-width:1.22px;"/>
    </g>
    <g transform="matrix(2.1658,0,0,2.1658,974.644,-92.5493)">
        <path d="M11.624,0L664.339,653.233" style="fill:none;stroke:rgb(205,205,193);stroke-width:1.22px;"/>
    </g>
    <g transform="matrix(2.1658,0,0,2.1658,1145.77,-92.5493)">
        <path d="M11.624,0L664.339,653.233" style="fill:none;stroke:rgb(205,205,193);stroke-width:1.22px;"/>
    </g>
    <g transform="matrix(2.1658,0,0,2.1658,1089.56,-92.5493)">
        <path d="M11.624,0L664.339,653.233" style="fill:none;stroke:rgb(205,205,193);stroke-width:1.22px;"/>
    </g>
    <g transform="matrix(2.1658,0,0,2.1658,1260.44,-92.5493)">
        <path d="M11.624,0L664.339,653.233" style="fill:none;stroke:rgb(205,205,193);stroke-width:1.22px;"/>
    </g>
    <g transform="matrix(2.1658,0,0,2.1658,1204.23,-92.5493)">
        <path d="M11.624,0L664.339,653.233" style="fill:none;stroke:rgb(205,205,193);stroke-width:1.22px;"/>
    </g>
    <g transform="matrix(2.1658,0,0,2.1658,1375.35,-92.5493)">
        <path d="M11.624,0L664.339,653.233" style="fill:none;stroke:rgb(205,205,193);stroke-width:1.22px;"/>
    </g>
    <g transform="matrix(2.1658,0,0,2.1658,1319.14,-92.5493)">
        <path d="M11.624,0L664.339,653.233" style="fill:none;stroke:rgb(205,205,193);stroke-width:1.22px;"/>
    </g>
    <g transform="matrix(2.1658,0,0,2.1658,1489.52,-92.5493)">
        <path d="M11.624,0L664.339,653.233" style="fill:none;stroke:rgb(205,205,193);stroke-width:1.22px;"/>
    </g>
    <g transform="matrix(2.1658,0,0,2.1658,1433.31,-92.5493)">
        <path d="M11.624,0L664.339,653.233" style="fill:none;stroke:rgb(205,205,193);stroke-width:1.22px;"/>
    </g>
    <g transform="matrix(2.1658,0,0,2.1658,1604.43,-92.5493)">
        <path d="M11.624,0L664.339,653.233" style="fill:none;stroke:rgb(205,205,193);stroke-width:1.22px;"/>
    </g>
    <g transform="matrix(2.1658,0,0,2.1658,1548.22,-92.5493)">
        <path d="M11.624,0L664.339,653.233" style="fill:none;stroke:rgb(205,205,193);stroke-width:1.22px;"/>
    </g>
    <g transform="matrix(2.1658,0,0,2.1658,-1042.42,-99.3046)">
        <path d="M11.624,0L664.339,653.233" style="fill:none;stroke:rgb(205,205,193);stroke-width:1.22px;"/>
    </g>
    <g transform="matrix(2.1658,0,0,2.1658,-1098.63,-99.3046)">
        <path d="M11.624,0L664.339,653.233" style="fill:none;stroke:rgb(205,205,193);stroke-width:1.22px;"/>
    </g>
    <g transform="matrix(2.1658,0,0,2.1658,-1098.63,-45.3046)">
        <path d="M11.624,0L664.339,653.233" style="fill:none;stroke:rgb(205,205,193);stroke-width:1.22px;"/>
    </g>
    <g transform="matrix(2.1658,0,0,2.1658,-927.505,-99.3046)">
        <path d="M11.624,0L664.339,653.233" style="fill:none;stroke:rgb(205,205,193);stroke-width:1.22px;"/>
    </g>
    <g transform="matrix(2.1658,0,0,2.1658,-983.714,-99.3046)">
        <path d="M11.624,0L664.339,653.233" style="fill:none;stroke:rgb(205,205,193);stroke-width:1.22px;"/>
    </g>
    <g transform="matrix(2.1658,0,0,2.1658,-813.341,-99.3046)">
        <path d="M11.624,0L664.339,653.233" style="fill:none;stroke:rgb(205,205,193);stroke-width:1.22px;"/>
    </g>
    <g transform="matrix(2.1658,0,0,2.1658,-869.549,-99.3046)">
        <path d="M11.624,0L664.339,653.233" style="fill:none;stroke:rgb(205,205,193);stroke-width:1.22px;"/>
    </g>
    <g transform="matrix(2.1658,0,0,2.1658,-698.427,-99.3046)">
        <path d="M11.624,0L664.339,653.233" style="fill:none;stroke:rgb(205,205,193);stroke-width:1.22px;"/>
    </g>
    <g transform="matrix(2.1658,0,0,2.1658,-754.636,-99.3046)">
        <path d="M11.624,0L664.339,653.233" style="fill:none;stroke:rgb(205,205,193);stroke-width:1.22px;"/>
    </g>
    <g transform="matrix(2.1658,0,0,2.1658,-583.755,-99.3046)">
        <path d="M11.624,0L664.339,653.233" style="fill:none;stroke:rgb(205,205,193);stroke-width:1.22px;"/>
    </g>
    <g transform="matrix(2.1658,0,0,2.1658,-639.963,-99.3046)">
        <path d="M11.624,0L664.339,653.233" style="fill:none;stroke:rgb(205,205,193);stroke-width:1.22px;"/>
    </g>
    <g transform="matrix(2.1658,0,0,2.1658,-468.841,-99.3046)">
        <path d="M11.624,0L664.339,653.233" style="fill:none;stroke:rgb(205,205,193);stroke-width:1.22px;"/>
    </g>
    <g transform="matrix(2.1658,0,0,2.1658,-525.05,-99.3046)">
        <path d="M11.624,0L664.339,653.233" style="fill:none;stroke:rgb(205,205,193);stroke-width:1.22px;"/>
    </g>
    <g transform="matrix(2.1658,0,0,2.1658,-354.677,-99.3046)">
        <path d="M11.624,0L664.339,653.233" style="fill:none;stroke:rgb(205,205,193);stroke-width:1.22px;"/>
    </g>
    <g transform="matrix(2.1658,0,0,2.1658,-410.885,-99.3046)">
        <path d="M11.624,0L664.339,653.233" style="fill:none;stroke:rgb(205,205,193);stroke-width:1.22px;"/>
    </g>
    <g transform="matrix(2.1658,0,0,2.1658,-239.763,-99.3046)">
        <path d="M11.624,0L664.339,653.233" style="fill:none;stroke:rgb(205,205,193);stroke-width:1.22px;"/>
    </g>
    <g transform="matrix(2.1658,0,0,2.1658,-295.972,-99.3046)">
        <path d="M11.624,0L664.339,653.233" style="fill:none;stroke:rgb(205,205,193);stroke-width:1.22px;"/>
    </g>
    <g transform="matrix(2.1658,0,0,2.1658,1656.69,-99.3046)">
        <path d="M11.624,0L664.339,653.233" style="fill:none;stroke:rgb(205,205,193);stroke-width:1.22px;"/>
    </g>
    <g transform="matrix(2.1658,0,0,2.1658,1706.91,-112.19)">
        <path d="M11.624,0L664.339,653.233" style="fill:none;stroke:rgb(205,205,193);stroke-width:1.22px;"/>
    </g>
</svg>
