<?xml version="1.0" encoding="UTF-8" standalone="no"?>
<!DOCTYPE svg PUBLIC "-//W3C//DTD SVG 1.1//EN" "http://www.w3.org/Graphics/SVG/1.1/DTD/svg11.dtd">
<svg width="100%" height="100%" viewBox="0 0 1242 3031" version="1.1" xmlns="http://www.w3.org/2000/svg" xmlns:xlink="http://www.w3.org/1999/xlink" xml:space="preserve" xmlns:serif="http://www.serif.com/" style="fill-rule:evenodd;clip-rule:evenodd;stroke-linecap:round;stroke-linejoin:round;stroke-miterlimit:1.5;">
    <g transform="matrix(1,0,0,1.22444,0,0)">
        <rect id="Artboard1" x="0" y="0" width="1242" height="2475" style="fill:none;"/>
        <clipPath id="_clip1">
            <rect id="Artboard11" serif:id="Artboard1" x="0" y="0" width="1242" height="2475"/>
        </clipPath>
        <g clip-path="url(#_clip1)">
            <g transform="matrix(5.11351,0,0,4.1762,-871.052,-84.8972)">
                <path d="M11.624,0L664.339,653.233" style="fill:none;stroke:rgb(205,205,193);stroke-width:1.55px;"/>
            </g>
            <g transform="matrix(5.11351,0,0,4.1762,-1003.76,-84.8972)">
                <path d="M11.624,0L664.339,653.233" style="fill:none;stroke:rgb(205,205,193);stroke-width:1.55px;"/>
            </g>
            <g transform="matrix(5.11351,0,0,4.1762,-599.739,-84.8972)">
                <path d="M11.624,0L664.339,653.233" style="fill:none;stroke:rgb(205,205,193);stroke-width:1.55px;"/>
            </g>
            <g transform="matrix(5.11351,0,0,4.1762,-732.449,-84.8972)">
                <path d="M11.624,0L664.339,653.233" style="fill:none;stroke:rgb(205,205,193);stroke-width:1.55px;"/>
            </g>
            <g transform="matrix(5.11351,0,0,4.1762,-330.195,-84.8972)">
                <path d="M11.624,0L664.339,653.233" style="fill:none;stroke:rgb(205,205,193);stroke-width:1.55px;"/>
            </g>
            <g transform="matrix(5.11351,0,0,4.1762,-462.905,-84.8972)">
                <path d="M11.624,0L664.339,653.233" style="fill:none;stroke:rgb(205,205,193);stroke-width:1.55px;"/>
            </g>
            <g transform="matrix(5.11351,0,0,4.1762,-58.8817,-84.8972)">
                <path d="M11.624,0L664.339,653.233" style="fill:none;stroke:rgb(205,205,193);stroke-width:1.55px;"/>
            </g>
            <g transform="matrix(5.11351,0,0,4.1762,-191.591,-84.8972)">
                <path d="M11.624,0L664.339,653.233" style="fill:none;stroke:rgb(205,205,193);stroke-width:1.55px;"/>
            </g>
            <g transform="matrix(5.11351,0,0,4.1762,211.862,-84.8972)">
                <path d="M11.624,0L664.339,653.233" style="fill:none;stroke:rgb(205,205,193);stroke-width:1.55px;"/>
            </g>
            <g transform="matrix(5.11351,0,0,4.1762,79.1523,-84.8972)">
                <path d="M11.624,0L664.339,653.233" style="fill:none;stroke:rgb(205,205,193);stroke-width:1.55px;"/>
            </g>
            <g transform="matrix(5.11351,0,0,4.1762,483.175,-84.8972)">
                <path d="M11.624,0L664.339,653.233" style="fill:none;stroke:rgb(205,205,193);stroke-width:1.55px;"/>
            </g>
            <g transform="matrix(5.11351,0,0,4.1762,350.465,-84.8972)">
                <path d="M11.624,0L664.339,653.233" style="fill:none;stroke:rgb(205,205,193);stroke-width:1.55px;"/>
            </g>
            <g transform="matrix(5.11351,0,0,4.1762,752.719,-84.8972)">
                <path d="M11.624,0L664.339,653.233" style="fill:none;stroke:rgb(205,205,193);stroke-width:1.55px;"/>
            </g>
            <g transform="matrix(5.11351,0,0,4.1762,620.01,-84.8972)">
                <path d="M11.624,0L664.339,653.233" style="fill:none;stroke:rgb(205,205,193);stroke-width:1.55px;"/>
            </g>
            <g transform="matrix(5.11351,0,0,4.1762,1024.03,-84.8972)">
                <path d="M11.624,0L664.339,653.233" style="fill:none;stroke:rgb(205,205,193);stroke-width:1.55px;"/>
            </g>
            <g transform="matrix(5.11351,0,0,4.1762,891.323,-84.8972)">
                <path d="M11.624,0L664.339,653.233" style="fill:none;stroke:rgb(205,205,193);stroke-width:1.55px;"/>
            </g>
            <g transform="matrix(5.11351,0,0,4.1762,1155.98,-91.0271)">
                <path d="M11.624,0L664.339,653.233" style="fill:none;stroke:rgb(205,205,193);stroke-width:1.55px;"/>
            </g>
            <g transform="matrix(5.11351,0,0,4.1762,-3065.49,-104.053)">
                <path d="M11.624,0L664.339,653.233" style="fill:none;stroke:rgb(205,205,193);stroke-width:1.55px;"/>
            </g>
            <g transform="matrix(5.11351,0,0,4.1762,-3198.2,-104.053)">
                <path d="M11.624,0L664.339,653.233" style="fill:none;stroke:rgb(205,205,193);stroke-width:1.55px;"/>
            </g>
            <g transform="matrix(5.11351,0,0,4.1762,-3198.2,0.0722836)">
                <path d="M11.624,0L664.339,653.233" style="fill:none;stroke:rgb(205,205,193);stroke-width:1.55px;"/>
            </g>
            <g transform="matrix(5.11351,0,0,4.1762,-2794.17,-104.053)">
                <path d="M11.624,0L664.339,653.233" style="fill:none;stroke:rgb(205,205,193);stroke-width:1.55px;"/>
            </g>
            <g transform="matrix(5.11351,0,0,4.1762,-2926.88,-104.053)">
                <path d="M11.624,0L664.339,653.233" style="fill:none;stroke:rgb(205,205,193);stroke-width:1.55px;"/>
            </g>
            <g transform="matrix(5.11351,0,0,4.1762,-2524.63,-104.053)">
                <path d="M11.624,0L664.339,653.233" style="fill:none;stroke:rgb(205,205,193);stroke-width:1.55px;"/>
            </g>
            <g transform="matrix(5.11351,0,0,4.1762,-2657.34,-104.053)">
                <path d="M11.624,0L664.339,653.233" style="fill:none;stroke:rgb(205,205,193);stroke-width:1.55px;"/>
            </g>
            <g transform="matrix(5.11351,0,0,4.1762,-2253.32,-104.053)">
                <path d="M11.624,0L664.339,653.233" style="fill:none;stroke:rgb(205,205,193);stroke-width:1.55px;"/>
            </g>
            <g transform="matrix(5.11351,0,0,4.1762,-2386.02,-104.053)">
                <path d="M11.624,0L664.339,653.233" style="fill:none;stroke:rgb(205,205,193);stroke-width:1.55px;"/>
            </g>
            <g transform="matrix(5.11351,0,0,4.1762,-1982.57,-104.053)">
                <path d="M11.624,0L664.339,653.233" style="fill:none;stroke:rgb(205,205,193);stroke-width:1.55px;"/>
            </g>
            <g transform="matrix(5.11351,0,0,4.1762,-2115.28,-104.053)">
                <path d="M11.624,0L664.339,653.233" style="fill:none;stroke:rgb(205,205,193);stroke-width:1.55px;"/>
            </g>
            <g transform="matrix(5.11351,0,0,4.1762,-1711.26,-104.053)">
                <path d="M11.624,0L664.339,653.233" style="fill:none;stroke:rgb(205,205,193);stroke-width:1.55px;"/>
            </g>
            <g transform="matrix(5.11351,0,0,4.1762,-1843.97,-104.053)">
                <path d="M11.624,0L664.339,653.233" style="fill:none;stroke:rgb(205,205,193);stroke-width:1.55px;"/>
            </g>
            <g transform="matrix(5.11351,0,0,4.1762,-1441.71,-104.053)">
                <path d="M11.624,0L664.339,653.233" style="fill:none;stroke:rgb(205,205,193);stroke-width:1.55px;"/>
            </g>
            <g transform="matrix(5.11351,0,0,4.1762,-1574.42,-104.053)">
                <path d="M11.624,0L664.339,653.233" style="fill:none;stroke:rgb(205,205,193);stroke-width:1.55px;"/>
            </g>
            <g transform="matrix(5.11351,0,0,4.1762,-1170.4,-104.053)">
                <path d="M11.624,0L664.339,653.233" style="fill:none;stroke:rgb(205,205,193);stroke-width:1.55px;"/>
            </g>
            <g transform="matrix(5.11351,0,0,4.1762,-1303.11,-104.053)">
                <path d="M11.624,0L664.339,653.233" style="fill:none;stroke:rgb(205,205,193);stroke-width:1.55px;"/>
            </g>
        </g>
    </g>
</svg>
