<?xml version="1.0" encoding="UTF-8" standalone="no"?>
<!DOCTYPE svg PUBLIC "-//W3C//DTD SVG 1.1//EN" "http://www.w3.org/Graphics/SVG/1.1/DTD/svg11.dtd">
<svg width="100%" height="100%" viewBox="0 0 7839 3372" version="1.1" xmlns="http://www.w3.org/2000/svg" xmlns:xlink="http://www.w3.org/1999/xlink" xml:space="preserve" xmlns:serif="http://www.serif.com/" style="fill-rule:evenodd;clip-rule:evenodd;stroke-linecap:round;stroke-linejoin:round;stroke-miterlimit:1.5;">
    <g transform="matrix(1,0,0,1,2546.29,75.6175)">
        <g transform="matrix(1.59222,0,0,1.24697,0,0)">
            <g transform="matrix(3.21156,0,0,4.10076,-85.1123,-38.6541)">
                <path d="M11.624,0L664.339,653.233" style="fill:none;stroke:rgb(205,205,193);stroke-width:1.55px;"/>
            </g>
        </g>
        <g transform="matrix(1.59222,0,0,1.24697,0,0)">
            <g transform="matrix(3.21156,0,0,4.10076,-168.461,-38.6541)">
                <path d="M11.624,0L664.339,653.233" style="fill:none;stroke:rgb(205,205,193);stroke-width:1.55px;"/>
            </g>
        </g>
        <g transform="matrix(1.59222,0,0,1.24697,0,0)">
            <g transform="matrix(3.21156,0,0,4.10076,85.2872,-38.6541)">
                <path d="M11.624,0L664.339,653.233" style="fill:none;stroke:rgb(205,205,193);stroke-width:1.55px;"/>
            </g>
        </g>
        <g transform="matrix(1.59222,0,0,1.24697,0,0)">
            <g transform="matrix(3.21156,0,0,4.10076,1.93822,-38.6541)">
                <path d="M11.624,0L664.339,653.233" style="fill:none;stroke:rgb(205,205,193);stroke-width:1.55px;"/>
            </g>
        </g>
        <g transform="matrix(1.59222,0,0,1.24697,0,0)">
            <g transform="matrix(3.21156,0,0,4.10076,254.576,-38.6541)">
                <path d="M11.624,0L664.339,653.233" style="fill:none;stroke:rgb(205,205,193);stroke-width:1.55px;"/>
            </g>
        </g>
        <g transform="matrix(1.59222,0,0,1.24697,0,0)">
            <g transform="matrix(3.21156,0,0,4.10076,171.227,-38.6541)">
                <path d="M11.624,0L664.339,653.233" style="fill:none;stroke:rgb(205,205,193);stroke-width:1.55px;"/>
            </g>
        </g>
        <g transform="matrix(1.59222,0,0,1.24697,0,0)">
            <g transform="matrix(3.21156,0,0,4.10076,424.975,-38.6541)">
                <path d="M11.624,0L664.339,653.233" style="fill:none;stroke:rgb(205,205,193);stroke-width:1.55px;"/>
            </g>
        </g>
        <g transform="matrix(1.59222,0,0,1.24697,0,0)">
            <g transform="matrix(3.21156,0,0,4.10076,341.626,-38.6541)">
                <path d="M11.624,0L664.339,653.233" style="fill:none;stroke:rgb(205,205,193);stroke-width:1.55px;"/>
            </g>
        </g>
        <g transform="matrix(1.59222,0,0,1.24697,0,0)">
            <g transform="matrix(3.21156,0,0,4.10076,595.017,-38.6541)">
                <path d="M11.624,0L664.339,653.233" style="fill:none;stroke:rgb(205,205,193);stroke-width:1.55px;"/>
            </g>
        </g>
        <g transform="matrix(1.59222,0,0,1.24697,0,0)">
            <g transform="matrix(3.21156,0,0,4.10076,511.668,-38.6541)">
                <path d="M11.624,0L664.339,653.233" style="fill:none;stroke:rgb(205,205,193);stroke-width:1.55px;"/>
            </g>
        </g>
        <g transform="matrix(1.59222,0,0,1.24697,0,0)">
            <g transform="matrix(3.21156,0,0,4.10076,765.417,-38.6541)">
                <path d="M11.624,0L664.339,653.233" style="fill:none;stroke:rgb(205,205,193);stroke-width:1.55px;"/>
            </g>
        </g>
        <g transform="matrix(1.59222,0,0,1.24697,0,0)">
            <g transform="matrix(3.21156,0,0,4.10076,682.068,-38.6541)">
                <path d="M11.624,0L664.339,653.233" style="fill:none;stroke:rgb(205,205,193);stroke-width:1.55px;"/>
            </g>
        </g>
        <g transform="matrix(1.59222,0,0,1.24697,0,0)">
            <g transform="matrix(3.21156,0,0,4.10076,934.705,-38.6541)">
                <path d="M11.624,0L664.339,653.233" style="fill:none;stroke:rgb(205,205,193);stroke-width:1.55px;"/>
            </g>
        </g>
        <g transform="matrix(1.59222,0,0,1.24697,0,0)">
            <g transform="matrix(3.21156,0,0,4.10076,851.356,-38.6541)">
                <path d="M11.624,0L664.339,653.233" style="fill:none;stroke:rgb(205,205,193);stroke-width:1.55px;"/>
            </g>
        </g>
        <g transform="matrix(1.59222,0,0,1.24697,0,0)">
            <g transform="matrix(3.21156,0,0,4.10076,1105.1,-38.6541)">
                <path d="M11.624,0L664.339,653.233" style="fill:none;stroke:rgb(205,205,193);stroke-width:1.55px;"/>
            </g>
        </g>
        <g transform="matrix(1.59222,0,0,1.24697,0,0)">
            <g transform="matrix(3.21156,0,0,4.10076,1021.76,-38.6541)">
                <path d="M11.624,0L664.339,653.233" style="fill:none;stroke:rgb(205,205,193);stroke-width:1.55px;"/>
            </g>
        </g>
        <g transform="matrix(1.59222,0,0,1.24697,0,0)">
            <g transform="matrix(3.21156,0,0,4.10076,1187.98,-44.6732)">
                <path d="M11.624,0L664.339,653.233" style="fill:none;stroke:rgb(205,205,193);stroke-width:1.55px;"/>
            </g>
        </g>
        <g transform="matrix(1.59222,0,0,1.24697,0,0)">
            <g transform="matrix(3.21156,0,0,4.10076,-1463.34,-57.4637)">
                <path d="M11.624,0L664.339,653.233" style="fill:none;stroke:rgb(205,205,193);stroke-width:1.55px;"/>
            </g>
        </g>
        <g transform="matrix(1.59222,0,0,1.24697,0,0)">
            <g transform="matrix(3.21156,0,0,4.10076,-1546.69,-57.4637)">
                <path d="M11.624,0L664.339,653.233" style="fill:none;stroke:rgb(205,205,193);stroke-width:1.55px;"/>
            </g>
        </g>
        <g transform="matrix(1.59222,0,0,1.24697,0,0)">
            <g transform="matrix(3.21156,0,0,4.10076,-1634.05,-57.4637)">
                <path d="M11.624,0L664.339,653.233" style="fill:none;stroke:rgb(205,205,193);stroke-width:1.55px;"/>
            </g>
        </g>
        <g transform="matrix(1.59222,0,0,1.24697,0,0)">
            <g transform="matrix(3.21156,0,0,4.10076,-1292.94,-57.4637)">
                <path d="M11.624,0L664.339,653.233" style="fill:none;stroke:rgb(205,205,193);stroke-width:1.55px;"/>
            </g>
        </g>
        <g transform="matrix(1.59222,0,0,1.24697,0,0)">
            <g transform="matrix(3.21156,0,0,4.10076,-1376.29,-57.4637)">
                <path d="M11.624,0L664.339,653.233" style="fill:none;stroke:rgb(205,205,193);stroke-width:1.55px;"/>
            </g>
        </g>
        <g transform="matrix(1.59222,0,0,1.24697,0,0)">
            <g transform="matrix(3.21156,0,0,4.10076,-1123.65,-57.4637)">
                <path d="M11.624,0L664.339,653.233" style="fill:none;stroke:rgb(205,205,193);stroke-width:1.55px;"/>
            </g>
        </g>
        <g transform="matrix(1.59222,0,0,1.24697,0,0)">
            <g transform="matrix(3.21156,0,0,4.10076,-1207,-57.4637)">
                <path d="M11.624,0L664.339,653.233" style="fill:none;stroke:rgb(205,205,193);stroke-width:1.55px;"/>
            </g>
        </g>
        <g transform="matrix(1.59222,0,0,1.24697,0,0)">
            <g transform="matrix(3.21156,0,0,4.10076,-953.249,-57.4637)">
                <path d="M11.624,0L664.339,653.233" style="fill:none;stroke:rgb(205,205,193);stroke-width:1.55px;"/>
            </g>
        </g>
        <g transform="matrix(1.59222,0,0,1.24697,0,0)">
            <g transform="matrix(3.21156,0,0,4.10076,-1036.6,-57.4637)">
                <path d="M11.624,0L664.339,653.233" style="fill:none;stroke:rgb(205,205,193);stroke-width:1.55px;"/>
            </g>
        </g>
        <g transform="matrix(1.59222,0,0,1.24697,0,0)">
            <g transform="matrix(3.21156,0,0,4.10076,-783.207,-57.4637)">
                <path d="M11.624,0L664.339,653.233" style="fill:none;stroke:rgb(205,205,193);stroke-width:1.55px;"/>
            </g>
        </g>
        <g transform="matrix(1.59222,0,0,1.24697,0,0)">
            <g transform="matrix(3.21156,0,0,4.10076,-866.556,-57.4637)">
                <path d="M11.624,0L664.339,653.233" style="fill:none;stroke:rgb(205,205,193);stroke-width:1.55px;"/>
            </g>
        </g>
        <g transform="matrix(1.59222,0,0,1.24697,0,0)">
            <g transform="matrix(3.21156,0,0,4.10076,-612.808,-57.4637)">
                <path d="M11.624,0L664.339,653.233" style="fill:none;stroke:rgb(205,205,193);stroke-width:1.55px;"/>
            </g>
        </g>
        <g transform="matrix(1.59222,0,0,1.24697,0,0)">
            <g transform="matrix(3.21156,0,0,4.10076,-696.157,-57.4637)">
                <path d="M11.624,0L664.339,653.233" style="fill:none;stroke:rgb(205,205,193);stroke-width:1.55px;"/>
            </g>
        </g>
        <g transform="matrix(1.59222,0,0,1.24697,0,0)">
            <g transform="matrix(3.21156,0,0,4.10076,-443.519,-57.4637)">
                <path d="M11.624,0L664.339,653.233" style="fill:none;stroke:rgb(205,205,193);stroke-width:1.55px;"/>
            </g>
        </g>
        <g transform="matrix(1.59222,0,0,1.24697,0,0)">
            <g transform="matrix(3.21156,0,0,4.10076,-526.868,-57.4637)">
                <path d="M11.624,0L664.339,653.233" style="fill:none;stroke:rgb(205,205,193);stroke-width:1.55px;"/>
            </g>
        </g>
        <g transform="matrix(1.59222,0,0,1.24697,0,0)">
            <g transform="matrix(3.21156,0,0,4.10076,-273.12,-57.4637)">
                <path d="M11.624,0L664.339,653.233" style="fill:none;stroke:rgb(205,205,193);stroke-width:1.55px;"/>
            </g>
        </g>
        <g transform="matrix(1.59222,0,0,1.24697,0,0)">
            <g transform="matrix(3.21156,0,0,4.10076,-356.469,-57.4637)">
                <path d="M11.624,0L664.339,653.233" style="fill:none;stroke:rgb(205,205,193);stroke-width:1.55px;"/>
            </g>
        </g>
    </g>
</svg>
