<?xml version="1.0" encoding="UTF-8" standalone="no"?>
<!DOCTYPE svg PUBLIC "-//W3C//DTD SVG 1.1//EN" "http://www.w3.org/Graphics/SVG/1.1/DTD/svg11.dtd">
<svg width="100%" height="100%" viewBox="0 0 223 253" version="1.1" xmlns="http://www.w3.org/2000/svg" xmlns:xlink="http://www.w3.org/1999/xlink" xml:space="preserve" xmlns:serif="http://www.serif.com/" style="fill-rule:evenodd;clip-rule:evenodd;stroke-linejoin:round;stroke-miterlimit:2;">
    <g transform="matrix(1,0,0,1,-640.677,-427.749)">
        <g id="Logo-w-bg" serif:id="Logo w bg">
            <rect x="687.594" y="453.944" width="142.87" height="201.645" style="fill:white;"/>
            <g id="cut-out-letter" serif:id="cut out letter" transform="matrix(0.503093,0,0,0.471309,420.871,335.077)">
                <path d="M879.75,238.306L879.75,690.982C879.75,713.985 861.075,732.66 838.072,732.66L478.587,732.66C455.584,732.66 436.909,713.985 436.909,690.982L436.909,238.306C436.909,215.303 455.584,196.628 478.587,196.628L838.072,196.628C861.075,196.628 879.75,215.303 879.75,238.306ZM620.349,283.301L620.463,612.75L721.727,612.75L721.727,592.952L639.692,592.952L639.692,283.301L620.349,283.301ZM603.622,612.286L603.622,283.327L550.782,283.327L550.782,645.646L757.861,645.646L757.861,559.265L654.094,559.265L654.094,578.016L739.019,578.016L739.019,627.532L568.623,627.532L568.623,301.622L583.733,301.622L583.733,612.75L603.622,612.286Z" style="fill:rgb(68,70,124);"/>
            </g>
        </g>
    </g>
</svg>
